M48
; DRILL file {KiCad 9.0.7} date 2026-03-21T23:01:37+0530
; FORMAT={-:-/ absolute / metric / decimal}
; #@! TF.CreationDate,2026-03-21T23:01:37+05:30
; #@! TF.GenerationSoftware,Kicad,Pcbnew,9.0.7
; #@! TF.FileFunction,Plated,1,2,PTH
FMAT,2
METRIC
; #@! TA.AperFunction,Plated,PTH,ViaDrill
T1C0.300
; #@! TA.AperFunction,Plated,PTH,ComponentDrill
T2C0.762
; #@! TA.AperFunction,Plated,PTH,ComponentDrill
T3C0.800
; #@! TA.AperFunction,Plated,PTH,ComponentDrill
T4C1.000
%
G90
G05
T1
X152.0Y-103.0
X201.0Y-109.5
X243.345Y-109.345
X243.5Y-104.5
X249.5Y-25.5
X249.5Y-25.5
X250.0Y-21.0
X252.5Y-21.0
X252.5Y-25.5
X255.5Y-109.5
X267.5Y-64.0
X268.5Y-62.5
X273.5Y-64.0
X279.5Y-62.5
T2
X174.56Y-46.0
X174.56Y-48.54
X174.56Y-51.08
X174.56Y-53.62
X174.56Y-56.16
X174.56Y-58.7
X174.56Y-61.24
X174.56Y-63.78
X174.56Y-66.32
X174.56Y-68.86
X174.56Y-71.4
X174.56Y-73.94
X174.56Y-76.48
X174.56Y-79.02
X174.56Y-81.56
X202.5Y-46.0
X202.5Y-48.54
X202.5Y-51.08
X202.5Y-53.62
X202.5Y-56.16
X202.5Y-58.7
X202.5Y-61.24
X202.5Y-63.78
X202.5Y-66.32
X202.5Y-68.86
X202.5Y-71.4
X202.5Y-73.94
X202.5Y-76.48
X202.5Y-79.02
X202.5Y-81.56
T3
X204.38Y-32.5
X212.0Y-32.5
X219.0Y-82.5
X219.0Y-90.12
X231.0Y-83.5
X231.0Y-91.12
X259.69Y-18.0
X267.31Y-18.0
X272.0Y-22.19
X272.0Y-29.81
X272.69Y-49.5
X279.0Y-18.0
X279.0Y-25.62
X280.31Y-49.5
T4
X158.5Y-99.5
X158.5Y-102.04
X193.5Y-102.5
X194.735Y-32.5
X196.04Y-102.5
X197.275Y-32.5
X198.58Y-102.5
X201.12Y-102.5
X216.5Y-98.5
X219.04Y-98.5
X228.225Y-99.0
X230.765Y-99.0
X240.805Y-101.58
X243.345Y-101.58
X244.0Y-48.42
X244.0Y-50.96
X244.0Y-53.5
X244.0Y-56.04
X244.0Y-65.92
X244.0Y-68.46
X244.0Y-71.0
X244.0Y-73.54
X245.885Y-101.58
X249.96Y-18.5
X252.5Y-18.5
X252.96Y-101.5
X255.5Y-101.5
X258.04Y-101.5
X268.5Y-33.92
X268.5Y-36.46
X268.5Y-39.0
X268.5Y-41.54
M30
