%TF.GenerationSoftware,KiCad,Pcbnew,9.0.7*%
%TF.CreationDate,2026-03-21T23:01:47+05:30*%
%TF.ProjectId,pill_box,70696c6c-5f62-46f7-982e-6b696361645f,rev?*%
%TF.SameCoordinates,Original*%
%TF.FileFunction,Copper,L2,Bot*%
%TF.FilePolarity,Positive*%
%FSLAX46Y46*%
G04 Gerber Fmt 4.6, Leading zero omitted, Abs format (unit mm)*
G04 Created by KiCad (PCBNEW 9.0.7) date 2026-03-21 23:01:47*
%MOMM*%
%LPD*%
G01*
G04 APERTURE LIST*
%TA.AperFunction,ComponentPad*%
%ADD10C,1.700000*%
%TD*%
%TA.AperFunction,ComponentPad*%
%ADD11R,1.700000X1.700000*%
%TD*%
%TA.AperFunction,ComponentPad*%
%ADD12C,1.600000*%
%TD*%
%TA.AperFunction,ComponentPad*%
%ADD13C,1.524000*%
%TD*%
%TA.AperFunction,ViaPad*%
%ADD14C,0.600000*%
%TD*%
%TA.AperFunction,Conductor*%
%ADD15C,0.200000*%
%TD*%
G04 APERTURE END LIST*
D10*
%TO.P,J12,2,Pin_2*%
%TO.N,GND*%
X158500000Y-102040000D03*
D11*
%TO.P,J12,1,Pin_1*%
%TO.N,+5V*%
X158500000Y-99500000D03*
%TD*%
D12*
%TO.P,R8,2*%
%TO.N,Net-(U2-SDA)*%
X267310000Y-18000000D03*
%TO.P,R8,1*%
%TO.N,/3.2v*%
X259690000Y-18000000D03*
%TD*%
%TO.P,R1,2*%
%TO.N,Net-(U2-SCL)*%
X272690000Y-49500000D03*
%TO.P,R1,1*%
%TO.N,/3.2v*%
X280310000Y-49500000D03*
%TD*%
D10*
%TO.P,J1,4,Pin_4*%
%TO.N,Net-(J1-Pin_4)*%
X244000000Y-48420000D03*
%TO.P,J1,3,Pin_3*%
%TO.N,Net-(J1-Pin_3)*%
X244000000Y-50960000D03*
%TO.P,J1,2,Pin_2*%
%TO.N,Net-(J1-Pin_2)*%
X244000000Y-53500000D03*
D11*
%TO.P,J1,1,Pin_1*%
%TO.N,Net-(J1-Pin_1)*%
X244000000Y-56040000D03*
%TD*%
D10*
%TO.P,J6,2,Pin_2*%
%TO.N,/IN*%
X230765000Y-99000000D03*
D11*
%TO.P,J6,1,Pin_1*%
%TO.N,GND*%
X228225000Y-99000000D03*
%TD*%
D12*
%TO.P,R7,2*%
%TO.N,Net-(U5-D0(GPIO16))*%
X212000000Y-32500000D03*
%TO.P,R7,1*%
%TO.N,/IN*%
X204380000Y-32500000D03*
%TD*%
D10*
%TO.P,J9,2,Pin_2*%
%TO.N,GND*%
X194735000Y-32500000D03*
D11*
%TO.P,J9,1,Pin_1*%
%TO.N,/IN*%
X197275000Y-32500000D03*
%TD*%
D12*
%TO.P,R5,2*%
%TO.N,/IN*%
X231000000Y-91120000D03*
%TO.P,R5,1*%
%TO.N,Net-(U5-D6(GPIO12))*%
X231000000Y-83500000D03*
%TD*%
%TO.P,R3,2*%
%TO.N,Net-(U2-SCL)*%
X272000000Y-29810000D03*
%TO.P,R3,1*%
%TO.N,/3.2v*%
X272000000Y-22190000D03*
%TD*%
D10*
%TO.P,J11,2,Pin_2*%
%TO.N,GND*%
X249960000Y-18500000D03*
D11*
%TO.P,J11,1,Pin_1*%
%TO.N,/3.2v*%
X252500000Y-18500000D03*
%TD*%
D10*
%TO.P,J8,4,Pin_4*%
%TO.N,+5V*%
X201120000Y-102500000D03*
%TO.P,J8,3,Pin_3*%
%TO.N,GND*%
X198580000Y-102500000D03*
%TO.P,J8,2,Pin_2*%
%TO.N,/VOT*%
X196040000Y-102500000D03*
D11*
%TO.P,J8,1,Pin_1*%
%TO.N,/VOR*%
X193500000Y-102500000D03*
%TD*%
D10*
%TO.P,J7,3,Pin_3*%
%TO.N,GND*%
X245885000Y-101580000D03*
%TO.P,J7,2,Pin_2*%
%TO.N,+5V*%
X243345000Y-101580000D03*
D11*
%TO.P,J7,1,Pin_1*%
%TO.N,/IN*%
X240805000Y-101580000D03*
%TD*%
D10*
%TO.P,J5,2,Pin_2*%
%TO.N,/IN*%
X219040000Y-98500000D03*
D11*
%TO.P,J5,1,Pin_1*%
%TO.N,GND*%
X216500000Y-98500000D03*
%TD*%
D13*
%TO.P,U5,30,D0(GPIO16)*%
%TO.N,Net-(U5-D0(GPIO16))*%
X202500000Y-46000000D03*
%TO.P,U5,29,D1(GPIO5)*%
%TO.N,Net-(U2-SDA)*%
X202500000Y-48540000D03*
%TO.P,U5,28,D2(GPIO4)*%
%TO.N,Net-(U2-SCL)*%
X202500000Y-51080000D03*
%TO.P,U5,27,D3(GPIO0)*%
%TO.N,unconnected-(U5-D3(GPIO0)-Pad27)*%
X202500000Y-53620000D03*
%TO.P,U5,26,D4(GPIO2)*%
%TO.N,/IN*%
X202500000Y-56160000D03*
%TO.P,U5,25,3.3V*%
%TO.N,unconnected-(U5-3.3V-Pad25)*%
X202500000Y-58700000D03*
%TO.P,U5,24,GND*%
%TO.N,unconnected-(U5-GND-Pad24)*%
X202500000Y-61240000D03*
%TO.P,U5,23,D5(GPIO14)*%
%TO.N,/IN*%
X202500000Y-63780000D03*
%TO.P,U5,22,D6(GPIO12)*%
%TO.N,Net-(U5-D6(GPIO12))*%
X202500000Y-66320000D03*
%TO.P,U5,21,D7(GPIO13)*%
%TO.N,Net-(U5-D7(GPIO13))*%
X202500000Y-68860000D03*
%TO.P,U5,20,D8(GPIO15)*%
%TO.N,unconnected-(U5-D8(GPIO15)-Pad20)*%
X202500000Y-71400000D03*
%TO.P,U5,19,RX(DPIO3)*%
%TO.N,/VOT*%
X202500000Y-73940000D03*
%TO.P,U5,18,TX(GPIO1)*%
%TO.N,/VOR*%
X202500000Y-76480000D03*
%TO.P,U5,17,GND*%
%TO.N,unconnected-(U5-GND-Pad17)*%
X202500000Y-79020000D03*
%TO.P,U5,16,3.3V*%
%TO.N,unconnected-(U5-3.3V-Pad16)*%
X202500000Y-81560000D03*
%TO.P,U5,15,VIN*%
%TO.N,+5V*%
X174560000Y-81560000D03*
%TO.P,U5,14,GND*%
%TO.N,GND*%
X174560000Y-79020000D03*
%TO.P,U5,13,RST*%
%TO.N,unconnected-(U5-RST-Pad13)*%
X174560000Y-76480000D03*
%TO.P,U5,12,EN*%
%TO.N,unconnected-(U5-EN-Pad12)*%
X174560000Y-73940000D03*
%TO.P,U5,11,3.3V*%
%TO.N,unconnected-(U5-3.3V-Pad11)*%
X174560000Y-71400000D03*
%TO.P,U5,10,GND*%
%TO.N,unconnected-(U5-GND-Pad10)*%
X174560000Y-68860000D03*
%TO.P,U5,9,CLK(SCLK)*%
%TO.N,unconnected-(U5-CLK(SCLK)-Pad9)*%
X174560000Y-66320000D03*
%TO.P,U5,8,SDO(MISO)*%
%TO.N,unconnected-(U5-SDO(MISO)-Pad8)*%
X174560000Y-63780000D03*
%TO.P,U5,7,CMD(CS)*%
%TO.N,unconnected-(U5-CMD(CS)-Pad7)*%
X174560000Y-61240000D03*
%TO.P,U5,6,SD1(MOSI)*%
%TO.N,unconnected-(U5-SD1(MOSI)-Pad6)*%
X174560000Y-58700000D03*
%TO.P,U5,5,SD2(GPIO9)*%
%TO.N,unconnected-(U5-SD2(GPIO9)-Pad5)*%
X174560000Y-56160000D03*
%TO.P,U5,4,SD3(GPIO10)*%
%TO.N,unconnected-(U5-SD3(GPIO10)-Pad4)*%
X174560000Y-53620000D03*
%TO.P,U5,3,RSV*%
%TO.N,unconnected-(U5-RSV-Pad3)*%
X174560000Y-51080000D03*
%TO.P,U5,2,RSV*%
%TO.N,unconnected-(U5-RSV-Pad2)*%
X174560000Y-48540000D03*
%TO.P,U5,1,A0(ADC0)*%
%TO.N,unconnected-(U5-A0(ADC0)-Pad1)*%
X174560000Y-46000000D03*
%TD*%
D12*
%TO.P,R2,2*%
%TO.N,Net-(U2-SDA)*%
X279000000Y-25620000D03*
%TO.P,R2,1*%
%TO.N,/3.2v*%
X279000000Y-18000000D03*
%TD*%
D10*
%TO.P,J3,4,Pin_4*%
%TO.N,Net-(J3-Pin_4)*%
X244000000Y-73540000D03*
%TO.P,J3,3,Pin_3*%
%TO.N,Net-(J3-Pin_3)*%
X244000000Y-71000000D03*
%TO.P,J3,2,Pin_2*%
%TO.N,Net-(J3-Pin_2)*%
X244000000Y-68460000D03*
D11*
%TO.P,J3,1,Pin_1*%
%TO.N,Net-(J3-Pin_1)*%
X244000000Y-65920000D03*
%TD*%
D10*
%TO.P,J4,3,Pin_3*%
%TO.N,GND*%
X258040000Y-101500000D03*
%TO.P,J4,2,Pin_2*%
%TO.N,+5V*%
X255500000Y-101500000D03*
D11*
%TO.P,J4,1,Pin_1*%
%TO.N,/IN*%
X252960000Y-101500000D03*
%TD*%
D10*
%TO.P,J2,4,Pin_4*%
%TO.N,Net-(J2-Pin_4)*%
X268500000Y-33920000D03*
%TO.P,J2,3,Pin_3*%
%TO.N,Net-(J2-Pin_3)*%
X268500000Y-36460000D03*
%TO.P,J2,2,Pin_2*%
%TO.N,Net-(J2-Pin_2)*%
X268500000Y-39000000D03*
D11*
%TO.P,J2,1,Pin_1*%
%TO.N,Net-(J2-Pin_1)*%
X268500000Y-41540000D03*
%TD*%
D12*
%TO.P,R6,2*%
%TO.N,/IN*%
X219000000Y-90120000D03*
%TO.P,R6,1*%
%TO.N,Net-(U5-D7(GPIO13))*%
X219000000Y-82500000D03*
%TD*%
D14*
%TO.N,GND*%
X152000000Y-103000000D03*
%TO.N,Net-(U2-SDA)*%
X267500000Y-64000000D03*
%TO.N,+5V*%
X243500000Y-104500000D03*
%TO.N,/3.2v*%
X268500000Y-62500000D03*
X252500000Y-25500000D03*
%TO.N,Net-(U2-SDA)*%
X273500000Y-64000000D03*
%TO.N,/3.2v*%
X252500000Y-21000000D03*
%TO.N,+5V*%
X201000000Y-109500000D03*
%TO.N,GND*%
X250000000Y-21000000D03*
X249500000Y-25500000D03*
X249500000Y-25500000D03*
%TO.N,+5V*%
X255500000Y-109500000D03*
X243345000Y-109345000D03*
%TO.N,/3.2v*%
X279500000Y-62500000D03*
%TD*%
D15*
%TO.N,GND*%
X250000000Y-21000000D02*
X250000000Y-25000000D01*
X157540000Y-103000000D02*
X158500000Y-102040000D01*
X228225000Y-99000000D02*
X228225000Y-88775000D01*
X152000000Y-103000000D02*
X157540000Y-103000000D01*
X250000000Y-25000000D02*
X249500000Y-25500000D01*
%TO.N,+5V*%
X243500000Y-109190000D02*
X243345000Y-109345000D01*
X201000000Y-109500000D02*
X201120000Y-109380000D01*
X255500000Y-101500000D02*
X255500000Y-109500000D01*
X243500000Y-104500000D02*
X243500000Y-109190000D01*
X201120000Y-102500000D02*
X201120000Y-109380000D01*
X243345000Y-109345000D02*
X243500000Y-109500000D01*
%TO.N,Net-(U2-SDA)*%
X267500000Y-64000000D02*
X273500000Y-64000000D01*
%TO.N,/3.2v*%
X270000000Y-62500000D02*
X268500000Y-62500000D01*
X252500000Y-21000000D02*
X252500000Y-25500000D01*
X279500000Y-62500000D02*
X270000000Y-62500000D01*
%TD*%
M02*
